<?xml version="1.0" encoding="UTF-8"?>
<svg width="414px" height="736px" viewBox="0 0 414 736" version="1.1" xmlns="http://www.w3.org/2000/svg" xmlns:xlink="http://www.w3.org/1999/xlink">
    <!-- Generator: Sketch 52.2 (67145) - http://www.bohemiancoding.com/sketch -->
    <title>iPhone 8 Plus Copy</title>
    <desc>Created with Sketch.</desc>
    <g id="iPhone-8-Plus-Copy" stroke="none" stroke-width="1" fill="none" fill-rule="evenodd">
        <g id="sedan-car-front" transform="translate(130.000000, 225.000000)" fill="#FFFFFF" fill-rule="nonzero">
            <path d="M145.398699,32.2452995 C145.294302,32.1256275 145.205724,32.0091048 145.082346,31.8925821 L139.650577,26.674254 C144.155434,25.6570422 149.005115,21.8999719 149.005115,18.0452745 C149.005115,13.5544261 142.744502,11.9608993 137.401311,11.9608993 C131.814529,11.9608993 131.166007,15.771507 131.099573,18.4641265 L117.085164,5.01362602 C114.237993,2.20763306 108.837859,0 104.801203,0 L77.5063231,0 L77.4999961,0 L50.1987892,0 C46.1652969,0 40.7683259,2.20763306 37.9179914,5.01362602 L23.9067463,18.4641265 C23.8339852,15.771507 23.1854629,11.9608993 17.6050077,11.9608993 C12.2554896,11.9608993 5.99804035,13.5544261 5.99804035,18.0452745 C5.99804035,21.8999719 10.8508852,25.6570422 15.3557425,26.674254 L9.92397288,31.8925821 C9.80059547,32.0091048 9.71518034,32.1256275 9.60762054,32.2452995 C3.79622807,37.1896417 0,46.3602943 0,53.0146862 L0,72.7889059 C0,77.588382 1.90127756,81.9438122 4.97305877,85.1907019 L4.97305877,92.8591562 C4.97305877,97.3437062 8.74397865,101 13.3817039,101 L23.5492681,101 C28.1869934,101 31.9547498,97.3500047 31.9547498,92.8591562 L31.9547498,90.8971657 L77.4999961,90.8971657 L77.5063231,90.8971657 L123.048406,90.8971657 L123.048406,92.8591562 C123.048406,97.3500047 126.812999,101 131.457051,101 L141.621452,101 C146.26234,101 150.026933,97.3437062 150.026933,92.8591562 L150.026933,85.1907019 C153.101878,81.9438122 154.999992,77.588382 154.999992,72.7889059 L154.999992,53.0146862 C155.006319,46.3602943 151.210091,37.1896417 145.398699,32.2452995 Z M43.0650439,10.9909264 C45.035919,9.35645911 48.480996,8.11564965 50.1987892,8.11564965 L77.4999961,8.11564965 L77.5063231,8.11564965 L104.80753,8.11564965 C106.525323,8.11564965 109.9704,9.35645911 111.941275,10.9909264 L130.318183,28.7212747 L77.5063231,28.7212747 L77.4999961,28.7212747 L24.6913001,28.7212747 L43.0650439,10.9909264 Z M6.30490212,50.0228867 C6.30490212,45.1541268 10.1327654,41.2018023 14.8590694,41.2018023 C19.5822098,41.2018023 35.0170404,50.2212903 35.0170404,55.0900502 C35.0170404,59.9588101 19.5822098,58.8313741 14.8590694,58.8313741 C10.1327654,58.8313741 6.30490212,54.8947959 6.30490212,50.0228867 Z M31.9579133,82.2272458 L30.3286988,82.2272458 L28.6994842,82.2272458 L19.0349202,82.2429921 C16.3522524,81.4115868 14.4604654,80.4416139 13.122295,79.399208 C12.445301,78.8732812 11.9264832,78.3253095 11.5215522,77.780487 C11.1134577,77.2293661 10.8160865,76.6876929 10.6231115,76.1460198 C9.42097266,72.7637118 11.9043385,69.6553896 11.9043385,69.6553896 L28.3989495,69.6553896 L39.3953568,82.2209473 L31.9579133,82.2272458 Z M101.220094,82.2335443 L77.5063231,82.2335443 L77.4999961,82.2335443 L53.7862247,82.2335443 C48.8416376,82.2335443 44.8271265,78.2371301 44.8271265,73.317982 L77.4999961,73.317982 L77.5063231,73.317982 L110.179193,73.317982 C110.179193,78.2434286 106.164682,82.2335443 101.220094,82.2335443 Z M103.301693,67.2336067 L77.5063231,67.2336067 L77.4999961,67.2336067 L51.7046263,67.2336067 C46.3266365,67.2336067 41.9609743,60.6327523 41.9609743,52.4919086 L77.4999961,52.4919086 L77.5063231,52.4919086 L113.045345,52.4919086 C113.045345,60.6359016 108.679683,67.2336067 103.301693,67.2336067 Z M144.386371,76.1523183 C144.190233,76.6939915 143.892861,77.2356646 143.484767,77.7836363 C143.082999,78.3284587 142.564182,78.8764304 141.884024,79.4023573 C140.549017,80.4447632 138.654067,81.4210346 135.971399,82.2461414 L126.306835,82.2303951 L124.67762,82.2303951 L123.048406,82.2303951 L115.604635,82.2303951 L126.60737,69.6648374 L143.098817,69.6648374 C143.098817,69.6616881 145.585346,72.7637118 144.386371,76.1523183 Z M140.14725,58.8313741 C135.427273,58.8313741 119.992442,59.9525116 119.992442,55.0900502 C119.992442,50.2275888 135.427273,41.2018023 140.14725,41.2018023 C144.873554,41.2018023 148.701417,45.1541268 148.701417,50.0228867 C148.701417,54.8884974 144.873554,58.8313741 140.14725,58.8313741 Z" id="Shape"></path>
        </g>
    </g>
</svg>